#!OML:ASF E:\Mandelcareful walks\Project 1\Capture day 1\Session 1\Subject1.ASF
:FULLY-SPECIFIED
:DEGREES
1145
root 5.38367 15.2867 2.45772 -706.327 49.6767 -724.048
lowerback 27.1262 2.43677 -5.86444
upperback 6.65652 1.51804 -3.56394
thorax -7.59851 0.921104 -1.10458
lowerneck -23.5028 16.2065 8.42972
upperneck 11.9058 24.7874 -23.5498
head 12.1895 9.59589 -4.85276
rclavicle -1.59028e-015 -3.26007e-014
rhumerus -22.9029 3.13414 -91.035
rradius 25.4091
rwrist -48.5394
rhand 8.09154 -38.0627
rfingers 7.12502
rthumb 33.3141 -64.9961
lclavicle -1.59028e-015 -3.26007e-014
lhumerus -18.5466 -81.5163 114.497
lradius 50.143
lwrist 3.52415
lhand -10.384 -7.61257
lfingers 7.12502
lthumb 15.6138 21.7773
rfemur -37.9834 -13.0367 5.45281
rtibia 53.4115
rfoot -16.0426 -12.8712
rtoes -21.1204
lfemur -57.7253 19.1432 -25.095
ltibia 65.1233
lfoot -25.5728 16.2018
ltoes 8.06261
1146
root 5.51844 15.2755 2.40572 -706.41 49.2915 -724.467
lowerback 26.7061 2.44615 -5.91143
upperback 6.55895 1.5315 -3.64608
thorax -7.4992 0.923807 -1.15987
lowerneck -23.2182 16.3395 8.65005
upperneck 11.661 24.8905 -23.6974
head 12.1201 9.67815 -4.91758
rclavicle -1.43125e-014 -2.38542e-015
rhumerus -22.8789 3.25343 -91.2438
rradius 25.2717
rwrist -48.4854
rhand 7.30908 -37.7934
rfingers 7.12502
rthumb 32.5698 -64.8834
lclavicle -1.43125e-014 -2.38542e-015
lhumerus -18.7154 -81.5862 114.417
lradius 50.3117
lwrist 3.64649
lhand -10.2107 -7.72907
lfingers 7.12502
lthumb 15.7807 21.6477
rfemur -38.9676 -13.0673 5.98142
rtibia 53.0662
rfoot -15.7868 -13.4626
rtoes -21.1984
lfemur -57.8635 19.2435 -25.2708
ltibia 65.4921
lfoot -26.1185 16.2737
ltoes 8.00099
1147
root 5.64501 15.2678 2.35705 -706.623 49.1517 -724.703
lowerback 26.7218 2.30337 -5.86233
upperback 6.52751 1.34427 -3.80966
thorax -7.53329 0.835078 -1.31015
lowerneck -23.092 16.5195 8.87367
upperneck 11.445 25.0564 -23.8294
head 12.0991 9.7733 -4.95274
rclavicle 5.00937e-014 -1.59028e-014
rhumerus -22.6538 3.16236 -91.5393
rradius 25.0174
rwrist -48.2744
rhand 9.00739 -36.3907
rfingers 7.12502
rthumb 34.1843 -63.1334
lclavicle 5.00937e-014 -1.59028e-014
lhumerus -18.5363 -81.5442 113.872
lradius 50.2337
lwrist 2.07687
lhand -13.0524 -8.28316
lfingers 7.12502
lthumb 13.0426 21.2891
rfemur -39.6847 -13.3896 6.49184
rtibia 52.6525
rfoot -15.2539 -14.0097
rtoes -21.8804
lfemur -57.6287 19.1104 -25.4166
ltibia 65.7856
lfoot -26.7313 16.3416
ltoes 8.28688
1148
root 5.77286 15.259 2.31548 -706.705 48.7558 -724.907
lowerback 26.4972 2.43002 -6.2279
upperback 6.44828 1.42098 -3.76546
thorax -7.51864 0.873741 -1.07204
lowerneck -23.0094 16.6437 8.80987
upperneck 11.3071 25.2565 -23.9508
head 12.0823 9.86544 -4.93405
rclavicle 4.05521e-014 -3.49861e-014
rhumerus -22.5943 3.1589 -91.4792
rradius 24.8861
rwrist -48.2031
rhand 8.27186 -35.9855
rfingers 7.12502
rthumb 33.4855 -62.882
lclavicle 4.05521e-014 -3.49861e-014
lhumerus -18.3857 -80.9224 113.84
lradius 50.4788
lwrist 2.29482
lhand -10.9402 -7.90765
lfingers 7.12502
lthumb 15.0781 21.5232
rfemur -40.6563 -13.4401 6.94957
rtibia 52.2735
rfoot -14.6908 -13.8226
rtoes -20.5061
lfemur -57.4655 19.1985 -25.6837
ltibia 66.0674
lfoot -27.3781 16.3923
ltoes 8.51901
1149
root 5.89397 15.2585 2.28166 -707.088 48.4336 -725.046
lowerback 26.5914 2.55437 -6.52535
upperback 6.54103 1.49953 -3.80202
thorax -7.46644 0.914559 -0.970269
lowerneck -23.0134 16.7706 8.90631
upperneck 11.086 25.4015 -24.1419
head 12.0761 9.93398 -4.96984
rclavicle 8.0309e-014 -3.65764e-014
rhumerus -22.4005 3.16567 -91.5432
rradius 25.1711
rwrist -48.237
rhand 8.94115 -36.5935
rfingers 7.12502
rthumb 34.1214 -63.3503
lclavicle 8.0309e-014 -3.65764e-014
lhumerus -17.6092 -81.0199 112.889
lradius 50.8659
lwrist 2.60988
lhand -10.3676 -7.3547
lfingers 7.12502
lthumb 15.6296 22.0339
rfemur -41.1964 -13.3282 7.2501
rtibia 51.8442
rfoot -14.5423 -13.5169
rtoes -19.3001
lfemur -56.8208 19.3022 -25.8058
ltibia 66.2361
lfoot -27.9398 16.3786
ltoes 8.58356
